{"asset":{"generator":"glTF-Transform v4.2.1","version":"2.0"},"accessors":[{"type":"SCALAR","componentType":5123,"count":29268,"bufferView":0,"byteOffset":0},{"type":"VEC3","componentType":5122,"count":6986,"normalized":true,"bufferView":1,"byteOffset":0},{"type":"VEC3","componentType":5122,"count":6986,"max":[32541,9768,32047],"min":[-32541,-9768,-32767],"normalized":true,"bufferView":1,"byteOffset":8},{"type":"SCALAR","componentType":5123,"count":1854,"bufferView":2,"byteOffset":0},{"type":"VEC3","componentType":5122,"count":653,"normalized":true,"bufferView":3,"byteOffset":0},{"type":"VEC3","componentType":5122,"count":653,"max":[30707,6088,32767],"min":[-30707,-6088,-32767],"normalized":true,"bufferView":3,"byteOffset":8},{"type":"SCALAR","componentType":5123,"count":576,"bufferView":4,"byteOffset":0},{"type":"VEC3","componentType":5122,"count":113,"normalized":true,"bufferView":5,"byteOffset":0},{"type":"VEC3","componentType":5122,"count":113,"max":[3582,1116,32767],"min":[-2866,-5332,31431],"normalized":true,"bufferView":5,"byteOffset":8},{"type":"SCALAR","componentType":5123,"count":6,"bufferView":6,"byteOffset":0},{"type":"VEC3","componentType":5122,"count":4,"normalized":true,"bufferView":7,"byteOffset":0},{"type":"VEC3","componentType":5122,"count":4,"max":[32767,0,32767],"min":[-32767,0,-32767],"normalized":true,"bufferView":7,"byteOffset":8},{"type":"VEC2","componentType":5123,"count":4,"normalized":true,"bufferView":7,"byteOffset":16},{"type":"SCALAR","componentType":5123,"count":1854,"bufferView":8,"byteOffset":0},{"type":"VEC3","componentType":5122,"count":653,"normalized":true,"bufferView":9,"byteOffset":0},{"type":"VEC3","componentType":5122,"count":653,"max":[27287,6220,32767],"min":[-27287,-6220,-32767],"normalized":true,"bufferView":9,"byteOffset":8},{"type":"SCALAR","componentType":5123,"count":7500,"bufferView":10,"byteOffset":0},{"type":"VEC3","componentType":5122,"count":1723,"normalized":true,"bufferView":11,"byteOffset":0},{"type":"VEC3","componentType":5122,"count":1723,"max":[15080,7496,31557],"min":[-7812,-8178,-21099],"normalized":true,"bufferView":11,"byteOffset":8},{"type":"SCALAR","componentType":5123,"count":1854,"bufferView":12,"byteOffset":0},{"type":"VEC3","componentType":5122,"count":653,"normalized":true,"bufferView":13,"byteOffset":0},{"type":"VEC3","componentType":5122,"count":653,"max":[27287,6220,32767],"min":[-27287,-6220,-32767],"normalized":true,"bufferView":13,"byteOffset":8},{"type":"SCALAR","componentType":5123,"count":1854,"bufferView":14,"byteOffset":0},{"type":"VEC3","componentType":5122,"count":653,"normalized":true,"bufferView":15,"byteOffset":0},{"type":"VEC3","componentType":5122,"count":653,"max":[30707,6088,32767],"min":[-30707,-6088,-32767],"normalized":true,"bufferView":15,"byteOffset":8},{"type":"SCALAR","componentType":5126,"count":2,"max":[2],"min":[0],"bufferView":16,"byteOffset":0},{"type":"VEC3","componentType":5126,"count":2,"bufferView":17,"byteOffset":0},{"type":"SCALAR","componentType":5126,"count":61,"max":[2],"min":[0],"bufferView":18,"byteOffset":0},{"type":"VEC4","componentType":5126,"count":61,"bufferView":19,"byteOffset":0},{"type":"VEC3","componentType":5126,"count":2,"bufferView":20,"byteOffset":0},{"type":"VEC3","componentType":5126,"count":2,"bufferView":21,"byteOffset":0},{"type":"VEC3","componentType":5126,"count":2,"bufferView":22,"byteOffset":0},{"type":"VEC3","componentType":5126,"count":2,"bufferView":23,"byteOffset":0}],"bufferViews":[{"buffer":0,"byteOffset":0,"byteLength":58536,"target":34963},{"buffer":0,"byteOffset":58536,"byteLength":111776,"byteStride":16,"target":34962},{"buffer":1,"byteOffset":0,"byteLength":3708,"target":34963},{"buffer":1,"byteOffset":3708,"byteLength":10448,"byteStride":16,"target":34962},{"buffer":2,"byteOffset":0,"byteLength":1152,"target":34963},{"buffer":2,"byteOffset":1152,"byteLength":1808,"byteStride":16,"target":34962},{"buffer":3,"byteOffset":0,"byteLength":12,"target":34963},{"buffer":3,"byteOffset":12,"byteLength":80,"byteStride":20,"target":34962},{"buffer":4,"byteOffset":0,"byteLength":3708,"target":34963},{"buffer":4,"byteOffset":3708,"byteLength":10448,"byteStride":16,"target":34962},{"buffer":5,"byteOffset":0,"byteLength":15000,"target":34963},{"buffer":5,"byteOffset":15000,"byteLength":27568,"byteStride":16,"target":34962},{"buffer":6,"byteOffset":0,"byteLength":3708,"target":34963},{"buffer":6,"byteOffset":3708,"byteLength":10448,"byteStride":16,"target":34962},{"buffer":7,"byteOffset":0,"byteLength":3708,"target":34963},{"buffer":7,"byteOffset":3708,"byteLength":10448,"byteStride":16,"target":34962},{"buffer":8,"byteOffset":0,"byteLength":8},{"buffer":9,"byteOffset":0,"byteLength":24},{"buffer":10,"byteOffset":0,"byteLength":244},{"buffer":11,"byteOffset":0,"byteLength":976},{"buffer":13,"byteOffset":0,"byteLength":24},{"buffer":15,"byteOffset":0,"byteLength":24},{"buffer":21,"byteOffset":0,"byteLength":24},{"buffer":27,"byteOffset":0,"byteLength":24}],"samplers":[{"wrapS":10497,"wrapT":10497}],"textures":[{"source":0,"sampler":0}],"images":[{"name":"droneTagl_Color","mimeType":"image/png","uri":"8fd57abffac07bfc745125b3bd4bd668.png"}],"buffers":[{"uri":"drone_bin/buffer_1.bin","byteLength":170312},{"uri":"drone_bin/buffer_2.bin","byteLength":14156},{"uri":"drone_bin/buffer_3.bin","byteLength":2960},{"uri":"drone_bin/buffer_4.bin","byteLength":92},{"uri":"drone_bin/buffer_5.bin","byteLength":14156},{"uri":"drone_bin/buffer_6.bin","byteLength":42568},{"uri":"drone_bin/buffer_7.bin","byteLength":14156},{"uri":"drone_bin/buffer_8.bin","byteLength":14156},{"uri":"drone_bin/buffer_9.bin","byteLength":8},{"uri":"drone_bin/buffer_10.bin","byteLength":24},{"uri":"drone_bin/buffer_11.bin","byteLength":244},{"uri":"drone_bin/buffer_12.bin","byteLength":976},{},{"uri":"drone_bin/buffer_13.bin","byteLength":24},{},{"uri":"drone_bin/buffer_14.bin","byteLength":24},{},{},{},{},{},{"uri":"drone_bin/buffer_15.bin","byteLength":24},{},{},{},{},{},{"uri":"drone_bin/buffer_16.bin","byteLength":24},{},{},{},{}],"materials":[{"name":"droneBase_mat","doubleSided":true,"pbrMetallicRoughness":{"baseColorFactor":[0.9822776317596436,0.07751491665840149,0.017930185422301292,1],"roughnessFactor":0.44999998807907104,"metallicFactor":0}},{"name":"droneCam_mat","doubleSided":true,"pbrMetallicRoughness":{"baseColorFactor":[0,0,0,1],"roughnessFactor":0,"metallicFactor":0}},{"name":"droneTag_mat","doubleSided":true,"pbrMetallicRoughness":{"roughnessFactor":0.5,"metallicFactor":0,"baseColorTexture":{"index":0}}},{"name":"droneAccent_mat","doubleSided":true,"pbrMetallicRoughness":{"baseColorFactor":[0.6375938653945923,0.030713414773344994,0.008023212663829327,1],"roughnessFactor":0.17954543232917786,"metallicFactor":0}}],"meshes":[{"name":"drone_geo","primitives":[{"attributes":{"NORMAL":1,"POSITION":2},"mode":4,"material":0,"indices":0},{"attributes":{"NORMAL":7,"POSITION":8},"mode":4,"material":1,"indices":6},{"attributes":{"NORMAL":17,"POSITION":18},"mode":4,"material":3,"indices":16}]},{"name":"drone_propellerBL_geo","primitives":[{"attributes":{"NORMAL":14,"POSITION":15},"mode":4,"material":3,"indices":13}]},{"name":"drone_propellerFR_geo","primitives":[{"attributes":{"NORMAL":4,"POSITION":5},"mode":4,"material":3,"indices":3}]},{"name":"drone_propellerBR_geo","primitives":[{"attributes":{"NORMAL":20,"POSITION":21},"mode":4,"material":3,"indices":19}]},{"name":"drone_propellerFL_geo","primitives":[{"attributes":{"NORMAL":23,"POSITION":24},"mode":4,"material":3,"indices":22}]},{"name":"droneTag_geo","primitives":[{"attributes":{"NORMAL":10,"POSITION":11,"TEXCOORD_0":12},"mode":4,"material":2,"indices":9}]}],"nodes":[{"name":"drone","extras":{"meta_spatial":{"entity_id":"drone1"}},"translation":[0,0.024624928832054138,0],"children":[1,2,3,4,5,6]},{"name":"drone_propellerBL","extras":{"meta_spatial":{"entity_id":"drone_propellerBL"}},"translation":[0.2022494226694107,-0.044249750673770905,-0.18801236152648926],"children":[7]},{"name":"drone_propellerBR","extras":{"meta_spatial":{"entity_id":"drone_propellerBR"}},"translation":[-0.2022494226694107,-0.044249750673770905,-0.18801236152648926],"children":[9]},{"name":"drone_propellerFL","extras":{"meta_spatial":{"entity_id":"drone_propellerFL"}},"translation":[0.21818417310714722,0.015162982046604156,0.15223082900047302],"children":[10]},{"name":"drone_propellerFR","extras":{"meta_spatial":{"entity_id":"drone_propellerFR"}},"translation":[-0.2235710769891739,0.01537192240357399,0.14617042243480682],"children":[8]},{"name":"droneTag","extras":{"meta_spatial":{"entity_id":"droneTag"}},"translation":[0,-0.07227540016174316,-0.11788322776556015],"scale":[0.03194654732942581,0.03194654732942581,0.03194654732942581],"mesh":5},{"translation":[-0.002693451941013336,-0.02413390763103962,-0.02113557606935501],"scale":[0.24666377156972885,0.24666377156972885,0.24666377156972885],"mesh":0},{"translation":[-0.0037467703223228455,0.0004171207547187805,-0.0026666298508644104],"scale":[0.07405056804418564,0.07405056804418564,0.07405056804418564],"mesh":1},{"translation":[0.009396933019161224,0.0004171207547187805,-0.009420812129974365],"scale":[0.07564841210842133,0.07564841210842133,0.07564841210842133],"mesh":2},{"translation":[0.0037467703223228455,0.0004171207547187805,-0.0026666298508644104],"scale":[0.07405056804418564,0.07405056804418564,0.07405056804418564],"mesh":3},{"translation":[-0.009396925568580627,0.0004171207547187805,-0.009420804679393768],"scale":[0.07564840465784073,0.07564840465784073,0.07564840465784073],"mesh":4}],"animations":[{"name":"PropellerSpin","samplers":[{"input":25,"output":26,"interpolation":"STEP"},{"input":27,"output":28,"interpolation":"LINEAR"},{"input":25,"output":29,"interpolation":"STEP"},{"input":25,"output":30,"interpolation":"STEP"},{"input":27,"output":28,"interpolation":"LINEAR"},{"input":25,"output":29,"interpolation":"STEP"},{"input":25,"output":31,"interpolation":"STEP"},{"input":27,"output":28,"interpolation":"LINEAR"},{"input":25,"output":29,"interpolation":"STEP"},{"input":25,"output":32,"interpolation":"STEP"},{"input":27,"output":28,"interpolation":"LINEAR"},{"input":25,"output":29,"interpolation":"STEP"}],"channels":[{"sampler":0,"target":{"node":1,"path":"translation"}},{"sampler":1,"target":{"node":1,"path":"rotation"}},{"sampler":2,"target":{"node":1,"path":"scale"}},{"sampler":3,"target":{"node":2,"path":"translation"}},{"sampler":4,"target":{"node":2,"path":"rotation"}},{"sampler":5,"target":{"node":2,"path":"scale"}},{"sampler":6,"target":{"node":3,"path":"translation"}},{"sampler":7,"target":{"node":3,"path":"rotation"}},{"sampler":8,"target":{"node":3,"path":"scale"}},{"sampler":9,"target":{"node":4,"path":"translation"}},{"sampler":10,"target":{"node":4,"path":"rotation"}},{"sampler":11,"target":{"node":4,"path":"scale"}}]}],"scenes":[{"nodes":[0]}],"scene":0,"extensionsUsed":["KHR_mesh_quantization"],"extensionsRequired":["KHR_mesh_quantization"]}