{"asset":{"generator":"glTF-Transform v4.2.1","version":"2.0"},"accessors":[{"type":"SCALAR","componentType":5123,"count":8040,"bufferView":0,"byteOffset":0},{"type":"VEC3","componentType":5122,"count":1584,"normalized":true,"bufferView":1,"byteOffset":0},{"type":"VEC3","componentType":5122,"count":1584,"max":[26005,32767,28261],"min":[-26005,-32767,-28261],"normalized":true,"bufferView":1,"byteOffset":8},{"type":"VEC2","componentType":5123,"count":1584,"normalized":true,"bufferView":1,"byteOffset":16}],"bufferViews":[{"buffer":0,"byteOffset":0,"byteLength":16080,"target":34963},{"buffer":0,"byteOffset":16080,"byteLength":31680,"byteStride":20,"target":34962}],"samplers":[{"wrapS":10497,"wrapT":10497}],"textures":[{"source":0,"sampler":0},{"source":2,"sampler":0},{"source":1,"sampler":0}],"images":[{"name":"EasyChair_Color","mimeType":"image/png","uri":"7763b9cb2627fe734c362c2ee3212cc5.png"},{"name":"EasyChair_ORM","mimeType":"image/png","uri":"11e20b5020cfb474a6871f3336005f1a.png"},{"name":"EasyChair_Normal","mimeType":"image/png","uri":"7c6adb3c2864e380393a9044fb8002b9.png"}],"buffers":[{"uri":"easyChair_bin/buffer.bin","byteLength":47760}],"materials":[{"name":"EasyChair_mat","doubleSided":true,"pbrMetallicRoughness":{"baseColorTexture":{"index":0},"metallicRoughnessTexture":{"index":2}},"normalTexture":{"index":1}}],"meshes":[{"name":"EasyChair_geo","primitives":[{"attributes":{"NORMAL":1,"POSITION":2,"TEXCOORD_0":3},"mode":4,"material":0,"indices":0}]}],"nodes":[{"name":"EasyChair","extras":{"meta_spatial":{"entity_id":"EasyChair1"}},"translation":[0.011562854051589966,0.035775840282440186,0],"scale":[0.41973525285720825,0.41973525285720825,0.41973525285720825],"mesh":0}],"scenes":[{"nodes":[0]}],"scene":0,"extensionsUsed":["KHR_mesh_quantization"],"extensionsRequired":["KHR_mesh_quantization"]}